# File created by Blade
# Date/Time:  Thu Jan 22 19:13:21 2015
#---------------------------------------------------------
:version 1.10
:name HOM
:units
  mass 1.0
  length 1.000000
  angle deg
:documentation
     Acclaim Skeleton File
:root
   axis xyz
   order TX TY TZ RX RY RZ
   position 0.000000 0.000000 0.000000
   orientation 0 0 0
:bonedata
   begin
      id 1
      name RightUpLeg_dum
      direction -1.000000 0.000000 0.000000
      length 4.478084
      axis 0.0 0.0 0.0 xyz
   end
   begin
      id 2
      name LeftUpLeg_dum
      direction 1.000000 0.000000 0.000000
      length 4.478084
      axis 0.0 0.0 0.0 xyz
   end
   begin
      id 3
      name Spine_dum
      direction 0.000000 1.000000 0.000000
      length 6.068208
      axis 0.0 0.0 0.0 xyz
   end
   begin
      id 4
      name RightUpLeg
      direction 0.000000 -1.000000 0.000000
      length 16.405774
      axis 0.0 0.0 0.0 xyz
      dof rx ry rz
   end
   begin
      id 5
      name RightLeg
      direction 0.000000 -1.000000 0.000000
      length 14.644143
      axis 0.0 0.0 0.0 xyz
      dof rx ry rz
   end
   begin
      id 6
      name RightFoot
      direction 0.000000 -0.258819 0.965926
      length 5.806150
      axis 15.0 0.0 0.0 xyz
      dof rx ry rz
   end
   begin
      id 7
      name RightToeBase
      direction 0.000000 0.000000 1.000000
      length 2.952750
      axis 0.0 0.0 0.0 xyz
      dof rx ry rz
   end
   begin
      id 8
      name LeftUpLeg
      direction 0.000000 -1.000000 0.000000
      length 16.405774
      axis 0.0 0.0 0.0 xyz
      dof rx ry rz
   end
   begin
      id 9
      name LeftLeg
      direction 0.000000 -1.000000 0.000000
      length 14.644143
      axis 0.0 0.0 0.0 xyz
      dof rx ry rz
   end
   begin
      id 10
      name LeftFoot
      direction 0.000000 -0.258819 0.965926
      length 5.806150
      axis 15.0 0.0 0.0 xyz
      dof rx ry rz
   end
   begin
      id 11
      name LeftToeBase
      direction 0.000000 0.000000 1.000000
      length 2.952750
      axis 0.0 0.0 0.0 xyz
      dof rx ry rz
   end
   begin
      id 12
      name Spine
      direction 0.000000 1.000000 0.000000
      length 0.000000
      axis 0.0 0.0 0.0 xyz
      dof rx ry rz
   end
   begin
      id 13
      name Spine_dum1
      direction 0.000000 1.000000 0.000000
      length 10.013923
      axis 0.0 0.0 0.0 xyz
   end
   begin
      id 14
      name Spine_dum2
      direction 0.000000 1.000000 0.000000
      length 10.013923
      axis 0.0 0.0 0.0 xyz
   end
   begin
      id 15
      name Spine_dum3
      direction 0.000000 1.000000 0.000000
      length 15.777476
      axis 0.0 0.0 0.0 xyz
   end
   begin
      id 16
      name RightShoulder
      direction -1.000000 0.000000 0.000000
      length 7.190220
      axis 0.0 0.0 90.0 xyz
      dof rx ry rz
   end
   begin
      id 17
      name RightArm
      direction -1.000000 0.000000 0.000000
      length 10.177469
      axis 0.0 0.0 90.0 xyz
      dof rx ry rz
   end
   begin
      id 18
      name RightForeArm
      direction -1.000000 0.000000 0.000000
      length 8.392114
      axis 0.0 0.0 90.0 xyz
      dof ry rz rx
   end
   begin
      id 19
      name RightHand
      direction -1.000000 0.000000 0.000000
      length 0.000000
      axis 0.0 0.0 90.0 xyz
      dof rx ry rz
   end
   begin
      id 20
      name RightHand_dum1
      direction -1.000000 0.000000 0.000000
      length 3.937000
      axis 0.0 0.0 90.0 xyz
   end
   begin
      id 21
      name RightHand_dum2
      direction 0.000000 0.000000 0.000000
      length 0.000000
      axis 0.0 0.0 90.0 xyz
   end
   begin
      id 22
      name RightHandThumb1
      direction 0.000000 0.000000 1.000000
      length 3.937000
      axis 0.0 0.0 90.0 xyz
      dof rx rz ry
   end
   begin
      id 23
      name LeftShoulder
      direction 1.000000 0.000000 0.000000
      length 7.190220
      axis 0.0 0.0 -90.0 xyz
      dof rx ry rz
   end
   begin
      id 24
      name LeftArm
      direction 1.000000 0.000000 0.000000
      length 10.177469
      axis 0.0 0.0 -90.0 xyz
      dof rx ry rz
   end
   begin
      id 25
      name LeftForeArm
      direction 1.000000 0.000000 0.000000
      length 8.392114
      axis 0.0 0.0 -90.0 xyz
      dof ry rz rx
   end
   begin
      id 26
      name LeftHand
      direction 1.000000 0.000000 0.000000
      length 0.000000
      axis 0.0 0.0 -90.0 xyz
      dof rx ry rz
   end
   begin
      id 27
      name LeftHand_dum1
      direction 1.000000 0.000000 0.000000
      length 3.937000
      axis 0.0 0.0 -90.0 xyz
   end
   begin
      id 28
      name LeftHand_dum2
      direction 0.000000 0.000000 0.000000
      length 0.000000
      axis 0.0 0.0 -90.0 xyz
   end
   begin
      id 29
      name LeftHandThumb1
      direction 0.000000 0.000000 1.000000
      length 3.937000
      axis 0.0 0.0 -90.0 xyz
      dof rx rz ry
   end
   begin
      id 30
      name Head
      direction 0.000000 1.000000 0.000000
      length 4.527550
      axis 0.0 0.0 0.0 xyz
      dof rx ry rz
   end
:hierarchy
   begin
      root RightUpLeg_dum LeftUpLeg_dum Spine_dum
      RightUpLeg_dum RightUpLeg
      LeftUpLeg_dum LeftUpLeg
      Spine_dum Spine
      RightUpLeg RightLeg
      RightLeg RightFoot
      RightFoot RightToeBase
      LeftUpLeg LeftLeg
      LeftLeg LeftFoot
      LeftFoot LeftToeBase
      Spine Spine_dum1 Spine_dum2 Spine_dum3
      Spine_dum1 RightShoulder
      Spine_dum2 LeftShoulder
      Spine_dum3 Head
      RightShoulder RightArm
      RightArm RightForeArm
      RightForeArm RightHand
      RightHand RightHand_dum1 RightHand_dum2
      RightHand_dum2 RightHandThumb1
      LeftShoulder LeftArm
      LeftArm LeftForeArm
      LeftForeArm LeftHand
      LeftHand LeftHand_dum1 LeftHand_dum2
      LeftHand_dum2 LeftHandThumb1
   end

# File created by Blade
# Date/Time:  Thu Jan 22 19:13:14 2015
# Frame Rate: 120.000 fps
#------------------------------------------------------
:FULLY-SPECIFIED
:DEGREES
917
root 2.344334 29.730965 -6.573664 80.539890 -58.122781 -24.426175
RightUpLeg -81.911217 11.206843 -3.825632
RightLeg -1.861804 -0.000000 0.000000
RightFoot 16.027350 -0.749329 4.086330
RightToeBase 10.534318 -0.000000 -0.000000
LeftUpLeg -37.936569 48.048233 -1.532357
LeftLeg 0.338791 -0.000000 -0.000000
LeftFoot -19.414186 5.980779 -41.835520
LeftToeBase 12.551168 -0.000000 -0.000000
Spine 48.548708 -30.367611 -26.011536
RightShoulder -26.209921 -21.753307 -13.490045
RightArm -12.277501 34.956402 54.491742
RightForeArm 25.272463 -0.000000 10.848971
RightHand 17.528125 -0.000000 -13.871167
RightHandThumb1 -24.326973 -0.000000 -32.862282
LeftShoulder -1.915734 -17.829265 28.705899
LeftArm 48.608224 -5.083795 -53.465293
LeftForeArm 2.911942 -0.000000 7.140100
LeftHand -4.393606 -0.000000 -6.415038
LeftHandThumb1 -26.253704 0.000000 33.147579
Head -29.583961 -26.503843 27.607700
918
root 2.338409 29.729203 -6.579692 80.632043 -58.044063 -24.487670
RightUpLeg -81.856123 11.205618 -3.657880
RightLeg -1.991753 -0.000000 0.000000
RightFoot 16.066918 -0.665647 4.221264
RightToeBase 10.688388 -0.000000 -0.000000
LeftUpLeg -38.078678 48.038531 -1.467341
LeftLeg 0.523788 -0.000000 -0.000000
LeftFoot -19.573582 6.017524 -41.731287
LeftToeBase 12.593065 -0.000000 -0.000000
Spine 48.751088 -30.305356 -26.181872
RightShoulder -26.169877 -21.838868 -13.504126
RightArm -12.296265 35.017817 54.421774
RightForeArm 25.316285 -0.000000 10.773910
RightHand 17.357395 -0.000000 -14.193861
RightHandThumb1 -24.326973 -0.000000 -32.862282
LeftShoulder -1.892694 -17.767433 28.725392
LeftArm 48.676508 -5.510556 -53.473750
LeftForeArm 2.666433 -0.000000 6.986068
LeftHand -4.192932 0.000000 -5.774381
LeftHandThumb1 -26.253704 0.000000 33.147579
Head -29.215720 -26.892357 27.619400
919
root 2.334515 29.725251 -6.588383 80.695697 -57.970140 -24.534831
RightUpLeg -81.833756 11.204310 -3.522590
RightLeg -2.050360 -0.000000 0.000000
RightFoot 16.074867 -0.619439 4.382464
RightToeBase 10.695823 -0.000000 -0.000000
LeftUpLeg -38.214339 48.053057 -1.420282
LeftLeg 0.700803 -0.000000 -0.000000
LeftFoot -19.714571 6.018167 -41.602612
LeftToeBase 12.635097 -0.000000 -0.000000
Spine 48.937182 -30.242037 -26.331201
RightShoulder -26.155353 -21.917412 -13.548170
RightArm -12.415790 35.148382 54.316538
RightForeArm 25.328465 -0.000000 10.777996
RightHand 17.447432 -0.000000 -13.969594
RightHandThumb1 -24.326973 -0.000000 -32.862282
LeftShoulder -1.862871 -17.671160 28.677146
LeftArm 48.806489 -5.949493 -53.417545
LeftForeArm 2.429516 -0.000000 6.917315
LeftHand -4.344760 -0.000000 -5.387228
LeftHandThumb1 -26.253704 0.000000 33.147579
Head -28.833144 -27.342584 27.616423
920
root 2.330331 29.720600 -6.599750 80.785785 -57.894515 -24.611065
RightUpLeg -81.832703 11.222662 -3.364840
RightLeg -2.071899 -0.000000 0.000000
RightFoot 16.086865 -0.551964 4.502227
RightToeBase 10.694516 -0.000000 -0.000000
LeftUpLeg -38.356882 48.118319 -1.388329
LeftLeg 0.863709 -0.000000 -0.000000
LeftFoot -19.820065 5.983396 -41.393888
LeftToeBase 12.761535 -0.000000 -0.000000
Spine 49.098043 -30.191232 -26.474895
RightShoulder -26.077956 -21.959988 -13.621178
RightArm -12.640123 35.352500 54.127556
RightForeArm 25.329710 -0.000000 10.771542
RightHand 17.387433 -0.000000 -13.868215
RightHandThumb1 -24.326973 -0.000000 -32.862282
LeftShoulder -1.851239 -17.587441 28.667343
LeftArm 48.832776 -6.451482 -53.521065
LeftForeArm 2.236580 -0.000000 6.977389
LeftHand -4.212023 -0.000000 -5.466187
LeftHandThumb1 -26.253704 0.000000 33.147579
Head -28.409901 -27.833211 27.568788
921
root 2.327720 29.716165 -6.612557 80.879140 -57.815391 -24.676258
RightUpLeg -81.861105 11.234681 -3.197492
RightLeg -2.062670 -0.000000 0.000000
RightFoot 16.081726 -0.495789 4.672207
RightToeBase 10.790575 -0.000000 -0.000000
LeftUpLeg -38.559259 48.209861 -1.423654
LeftLeg 1.007838 -0.000000 -0.000000
LeftFoot -19.891776 5.878556 -41.302708
LeftToeBase 12.809111 -0.000000 -0.000000
Spine 49.222864 -30.147223 -26.563420
RightShoulder -26.100076 -22.066570 -13.647145
RightArm -12.716148 35.410930 54.033926
RightForeArm 25.605781 -0.000000 10.743606
RightHand 17.469538 -0.000000 -14.026838
RightHandThumb1 -24.326973 -0.000000 -32.862282
LeftShoulder -1.847015 -17.550930 28.636911
LeftArm 48.851494 -6.848438 -53.581860
LeftForeArm 2.014050 0.000000 7.040730
LeftHand -4.301089 -0.000000 -5.292641
LeftHandThumb1 -26.253704 0.000000 33.147579
Head -28.024822 -28.557928 27.619753
922
root 2.327625 29.710511 -6.626873 80.942667 -57.755899 -24.763795
RightUpLeg -81.867232 11.263774 -3.026911
RightLeg -2.012253 -0.000000 0.000000
RightFoot 16.081301 -0.436376 4.839777
RightToeBase 10.857395 -0.000000 -0.000000
LeftUpLeg -38.705518 48.339151 -1.454445
LeftLeg 1.136478 -0.000000 -0.000000
LeftFoot -19.973445 5.802954 -41.102515
LeftToeBase 12.884681 -0.000000 -0.000000
Spine 49.364243 -30.073763 -26.695834
RightShoulder -26.109267 -22.200104 -13.698532
RightArm -12.799358 35.533879 53.975626
RightForeArm 25.759444 -0.000000 10.777728
RightHand 17.300628 -0.000000 -14.636957
RightHandThumb1 -24.326973 -0.000000 -32.862282
LeftShoulder -1.760217 -17.633097 28.642609
LeftArm 48.616559 -7.301829 -53.760665
LeftForeArm 1.752049 -0.000000 7.226463
LeftHand -4.145258 0.000000 -4.908087
LeftHandThumb1 -26.253704 0.000000 33.147579
Head -27.605569 -28.852740 27.368536
923
root 2.325422 29.707097 -6.640458 80.969240 -57.666882 -24.817443
RightUpLeg -81.833337 11.268804 -2.795628
RightLeg -1.991466 -0.000000 0.000000
RightFoot 16.061906 -0.362001 5.011859
RightToeBase 11.047443 -0.000000 -0.000000
LeftUpLeg -38.800108 48.435426 -1.410693
LeftLeg 1.242888 -0.000000 -0.000000
LeftFoot -19.974693 5.742164 -40.826099
LeftToeBase 12.834751 -0.000000 -0.000000
Spine 49.557694 -30.024667 -26.810568
RightShoulder -26.112791 -22.276874 -13.761505
RightArm -12.909431 35.678483 53.892752
RightForeArm 26.017827 -0.000000 10.741416
RightHand 17.365284 -0.000000 -14.141106
RightHandThumb1 -24.326973 -0.000000 -32.862282
LeftShoulder -1.771866 -17.611293 28.670037
LeftArm 48.525806 -7.734076 -53.986976
LeftForeArm 1.373719 -0.000000 7.434087
LeftHand -3.931034 -0.000000 -4.662220
LeftHandThumb1 -26.253704 0.000000 33.147579
Head -27.270382 -29.276563 27.258447
924
root 2.323275 29.705268 -6.651021 80.992653 -57.581971 -24.861390
RightUpLeg -81.794844 11.261367 -2.600105
RightLeg -1.980072 -0.000000 0.000000
RightFoot 15.992838 -0.303399 5.381811
RightToeBase 11.496565 -0.000000 -0.000000
LeftUpLeg -38.868702 48.507442 -1.371641
LeftLeg 1.291391 -0.000000 -0.000000
LeftFoot -19.997790 5.707045 -40.641282
LeftToeBase 12.855224 -0.000000 -0.000000
Spine 49.740464 -30.003100 -26.911739
RightShoulder -26.106157 -22.276934 -13.838153
RightArm -13.100294 35.757796 53.754044
RightForeArm 26.318097 -0.000000 10.777341
RightHand 16.961739 -0.000000 -14.567309
RightHandThumb1 -24.326973 -0.000000 -32.862282
LeftShoulder -1.781197 -17.713498 28.686282
LeftArm 48.301036 -8.107915 -54.209706
LeftForeArm 1.083508 -0.000000 7.691910
LeftHand -3.932948 0.000000 -4.649930
LeftHandThumb1 -26.253704 0.000000 33.147579
Head -26.950791 -29.818343 27.205141
925
root 2.322972 29.704596 -6.665364 80.967149 -57.494596 -24.864133
RightUpLeg -81.737377 11.230643 -2.366900
RightLeg -1.972748 -0.000000 0.000000
RightFoot 15.981615 -0.165080 5.514974
RightToeBase 11.643437 -0.000000 -0.000000
LeftUpLeg -38.894862 48.500968 -1.268805
LeftLeg 1.346463 -0.000000 -0.000000
LeftFoot -20.081930 5.737322 -40.429405
LeftToeBase 12.908458 -0.000000 -0.000000
Spine 49.903616 -29.958566 -27.028954
RightShoulder -26.089925 -22.416860 -13.869345
RightArm -13.134111 35.889198 53.714720
RightForeArm 26.567802 -0.000000 10.684541
RightHand 16.812356 0.000000 -14.838758
RightHandThumb1 -24.326973 -0.000000 -32.862282
LeftShoulder -1.740388 -17.763454 28.762747
LeftArm 48.090130 -8.436174 -54.446373
LeftForeArm 0.450616 -0.000000 7.912003
LeftHand -3.798322 -0.000000 -4.311441
LeftHandThumb1 -26.253704 0.000000 33.147579
Head -26.479882 -30.279103 27.063050
926
root 2.323684 29.707156 -6.678667 80.932303 -57.386303 -24.841092
RightUpLeg -81.666608 11.178710 -2.141789
RightLeg -2.006977 -0.000000 0.000000
RightFoot 15.967088 -0.021051 5.824399
RightToeBase 11.855389 -0.000000 -0.000000
LeftUpLeg -38.907045 48.446809 -1.109870
LeftLeg 1.432471 -0.000000 -0.000000
LeftFoot -20.134316 5.756251 -40.109760
LeftToeBase 12.906215 -0.000000 -0.000000
Spine 50.070125 -29.945684 -27.123262
RightShoulder -26.016756 -22.373825 -13.944739
RightArm -13.390532 35.962935 53.529724
RightForeArm 26.699574 -0.000000 10.655673
RightHand 16.950654 -0.000000 -15.206989
RightHandThumb1 -24.326973 -0.000000 -32.862282
LeftShoulder -1.705402 -17.777197 28.828956
LeftArm 47.936495 -8.939686 -54.869411
LeftForeArm 0.231699 -0.000000 8.131833
LeftHand -3.702952 -0.000000 -4.397706
LeftHandThumb1 -26.253704 0.000000 33.147579
Head -26.055030 -30.755000 26.908717
927
root 2.325080 29.712266 -6.689470 80.905467 -57.287806 -24.797033
RightUpLeg -81.612319 11.120214 -2.008985
RightLeg -2.085687 -0.000000 0.000000
RightFoot 15.992194 0.006141 6.238990
RightToeBase 11.909232 -0.000000 -0.000000
LeftUpLeg -39.013522 48.411114 -1.068091
LeftLeg 1.498597 -0.000000 -0.000000
LeftFoot -20.199094 5.810818 -39.852138
LeftToeBase 13.024942 -0.000000 -0.000000
Spine 50.194805 -29.949078 -27.211312
RightShoulder -25.964490 -22.461540 -13.962922
RightArm -13.492230 36.160988 53.417115
RightForeArm 26.950041 -0.000000 10.547624
RightHand 16.862850 -0.000000 -14.979912
RightHandThumb1 -24.326973 -0.000000 -32.862282
LeftShoulder -1.651749 -17.796348 28.906061
LeftArm 47.771346 -9.309947 -55.206931
LeftForeArm -0.200383 -0.000000 8.262215
LeftHand -3.565977 0.000000 -4.365297
LeftHandThumb1 -26.253704 0.000000 33.147579
Head -25.573783 -31.263209 26.804883
928
root 2.326766 29.717052 -6.701268 80.862713 -57.182223 -24.748685
RightUpLeg -81.559591 11.080516 -1.978380
RightLeg -2.165505 -0.000000 0.000000
RightFoot 15.933788 -0.061013 6.572622
RightToeBase 12.171977 -0.000000 -0.000000
LeftUpLeg -39.012212 48.269855 -0.866105
LeftLeg 1.606715 -0.000000 -0.000000
LeftFoot -20.327581 5.914431 -39.559766
LeftToeBase 13.057494 -0.000000 -0.000000
Spine 50.271927 -29.944529 -27.270959
RightShoulder -25.863002 -22.562260 -14.013255
RightArm -13.686681 36.426226 53.302085
RightForeArm 26.935814 -0.000000 10.574690
RightHand 16.597335 -0.000000 -15.375141
RightHandThumb1 -24.326973 -0.000000 -32.862282
LeftShoulder -1.528552 -17.789105 28.945362
LeftArm 47.610353 -9.752143 -55.633220
LeftForeArm -0.510874 -0.000000 8.406716
LeftHand -3.335917 -0.000000 -4.182265
LeftHandThumb1 -26.253704 0.000000 33.147579
Head -24.959515 -31.899186 26.628943
929
root 2.328012 29.724568 -6.709688 80.827073 -57.064887 -24.685490
RightUpLeg -81.509895 11.030360 -1.982857
RightLeg -2.279429 -0.000000 0.000000
RightFoot 15.899207 -0.169316 6.917079
RightToeBase 12.306280 -0.000000 -0.000000
LeftUpLeg -39.061948 48.128147 -0.704904
LeftLeg 1.716488 -0.000000 -0.000000
LeftFoot -20.432610 6.020300 -39.248256
LeftToeBase 13.008185 -0.000000 -0.000000
Spine 50.370600 -29.961379 -27.295704
RightShoulder -25.858744 -22.631903 -14.001368
RightArm -13.786066 36.760522 53.170554
RightForeArm 26.930841 -0.000000 10.572756
RightHand 16.533619 0.000000 -15.981237
RightHandThumb1 -24.326973 -0.000000 -32.862282
LeftShoulder -1.475759 -17.800361 28.990336
LeftArm 47.516561 -10.197184 -56.128903
LeftForeArm -0.548256 -0.000000 8.532182
LeftHand -3.259200 -0.000000 -4.200092
LeftHandThumb1 -26.253704 0.000000 33.147579
Head -24.500054 -32.439508 26.521556
